<svg id="Laag_1" data-name="Laag 1" xmlns="http://www.w3.org/2000/svg" viewBox="0 0 491.04 172.11"><defs><style>.cls-1{fill:#f08904;}.cls-2{fill:#243060;}</style></defs><title>logo-vlv</title><path class="cls-1" d="M32.76,114.32H15.65L0,68.22H18.48L23.7,91.49a48.63,48.63,0,0,1,1.09,7.69H25a49.23,49.23,0,0,1,1.28-7.69l5.67-23.27H48.23Z"/><path class="cls-1" d="M77.14,91.06c-6.68.51-11.35,2.05-11.35,8.47,0,4.71,2.84,6.77,7.6,6.77a9.16,9.16,0,0,0,3.75-.6Zm-4.57,24.12c-14.92,0-23-4.88-23-15,0-11.8,12.9-15.14,27.55-16.42V82c0-3.68-2.84-4.7-7.6-4.7a37.13,37.13,0,0,0-13.36,2.82L52.61,71a55.77,55.77,0,0,1,20.32-3.59c12.08,0,20.41,4.71,20.41,17.79v26.52c-4.21,2-11.44,3.51-20.77,3.51"/><path class="cls-1" d="M128.85,114.32V82.59c0-2.82-1.47-5.22-5.85-5.22a14.38,14.38,0,0,0-4.39.6v36.35H101.22V70.87c5.12-2.14,12.81-3.51,22-3.51,16.66,0,23.06,5.82,23.06,15.05v31.9Z"/><polygon class="cls-2" points="154.75 114.32 154.75 55.47 172.87 55.47 172.87 103.03 187.33 103.03 187.33 114.32 154.75 114.32"/><path class="cls-2" d="M213.42,77.46c-4.76,0-5.77,5.82-5.77,13.52s1.1,13.26,5.77,13.26,5.77-5.47,5.77-13.26-1-13.52-5.77-13.52m0,37.72c-14.74,0-23-10.1-23-24s8.33-23.86,23-23.86c14.83,0,23.06,10.09,23.06,23.86s-8.33,24-23.06,24"/><path class="cls-2" d="M265.86,77.46c-4.76,0-5.77,5.82-5.77,13.52s1.1,13.26,5.77,13.26,5.77-5.47,5.77-13.26-1-13.52-5.77-13.52m0,37.72c-14.73,0-23-10.1-23-24s8.33-23.86,23-23.86c14.83,0,23.06,10.09,23.06,23.86s-8.33,24-23.06,24"/><path class="cls-2" d="M324.61,114.32V82.59c0-2.82-1.46-5.22-5.85-5.22a14.42,14.42,0,0,0-4.4.6v36.35H297V70.87c5.12-2.14,12.81-3.51,22-3.51,16.65,0,23.06,5.82,23.06,15.05v31.9Z"/><path class="cls-1" d="M296.17,121.34a3.09,3.09,0,1,0,0,4.37,3.09,3.09,0,0,0,0-4.37"/><path class="cls-1" d="M401.73,13.8a45.35,45.35,0,0,0-64.14,0L296.24,55.11a3.45,3.45,0,0,0,4.46,5.25,39.16,39.16,0,1,1,1.75,65.79l-.12-.09a3.09,3.09,0,1,0-3.32,5.22l.25.18a45.37,45.37,0,0,0,55.62-6.69l46.84-46.82a45.36,45.36,0,0,0,0-64.14"/><path class="cls-2" d="M27.52,171.52H22.85L12.27,139.67h5.56l6.68,22.81a22.59,22.59,0,0,1,.83,3.9h.12a20,20,0,0,1,.77-3.9L33,139.67h4.85Z"/><path class="cls-2" d="M43,171.52V125.13h5.2v46.39Z"/><path class="cls-2" d="M59.69,157.57c.59,7.21,4,10.76,9.69,10.76a15.8,15.8,0,0,0,7.86-1.83l1.36,3.43A19.27,19.27,0,0,1,69,172.11c-8.33,0-14.18-5.26-14.18-16.61,0-10.82,5.32-16.43,12.82-16.43s12.23,5,12.12,15.6Zm7.74-15.13c-4.61,0-8,3.72-7.92,12.35l15.25-2.3C74.76,145.28,72,142.44,67.43,142.44Z"/><path class="cls-2" d="M89.73,157.57c.59,7.21,4,10.76,9.69,10.76a15.8,15.8,0,0,0,7.86-1.83l1.36,3.43A19.27,19.27,0,0,1,99,172.11c-8.33,0-14.18-5.26-14.18-16.61,0-10.82,5.32-16.43,12.82-16.43s12.23,5,12.12,15.6Zm7.74-15.13c-4.61,0-8,3.72-7.92,12.35l15.25-2.3C104.8,145.28,102,142.44,97.47,142.44Z"/><path class="cls-2" d="M122.09,172c-3.43,0-6.44-.89-8.15-2.19l1.42-3.43a10,10,0,0,0,6.21,1.89c3.55,0,5.91-2.42,5.91-5.5,0-3.31-1.77-4.79-5.26-6.09-6.2-2.3-7.45-5.61-7.45-8.92,0-4.73,3.72-8.75,9.51-8.75a13.26,13.26,0,0,1,7.45,2.19l-1.36,3.13a9,9,0,0,0-5.32-1.77c-3.49,0-5.32,2.3-5.32,5,0,3.07,2.25,4.55,5.32,5.73,6.2,2.36,7.74,5.67,7.74,9.34C132.79,167.5,128.59,172,122.09,172Z"/></svg>